<?xml version="1.0" encoding="UTF-8" standalone="no"?>
<svg
   width="196.15018mm"
   height="197.48856mm"
   viewBox="0 0 196.15018 197.48856"
   version="1.1"
   id="svg1"
   xml:space="preserve"
   xmlns="http://www.w3.org/2000/svg"
   xmlns:svg="http://www.w3.org/2000/svg"><defs
     id="defs1" /><g
     id="layer1"
     transform="translate(-6.8955416,-6.5625)"><path
       id="path2"
       style="color:#000000;fill:#000000;-inkscape-stroke:none;paint-order:markers fill stroke"
       d="M 85.378906,10.740234 C 37.990992,20.25768 4.6991737,63.038515 7.1113281,111.3125 c 2.4121544,48.27399 39.8036639,87.5215 87.9042969,92.26758 48.100635,4.74607 92.442045,-26.43693 104.242185,-73.3086 l -1.39648,-0.35156 C 186.23263,176.11056 142.558,206.8236 95.15625,202.14648 47.7545,197.46937 10.925935,158.81282 8.5488281,111.24023 6.1717214,63.667651 38.964676,21.531505 85.664062,12.152344 Z m 32.777604,125.946786 -0.14088,-0.0317 -1.64063,-0.19932 -1.64062,-0.19931 -1.77349,-0.55027 -1.77348,-0.55027 -1.32922,-0.80463 -1.32922,-0.80463 -1.25423,-1.09375 -1.25423,-1.09375 -1.03164,-1.57496 -1.03165,-1.57496 -0.13486,0.13486 -0.13486,0.13486 0.003,1.76823 0.003,1.76822 0.12662,0.47197 0.12661,0.47196 0.4363,0.1141 0.4363,0.11409 -0.0762,0.39832 -0.0762,0.39831 -1.87815,0.0627 -1.87815,0.0627 -0.30689,-0.37173 -0.30688,-0.37173 0.24241,-0.0817 0.24242,-0.0817 0.41383,-0.30267 0.41384,-0.30268 v -5.94276 -5.94275 l -0.63073,-0.54252 -0.63072,-0.54252 0.19322,-0.18293 0.19323,-0.18292 0.4375,-0.0777 0.4375,-0.0777 0.0513,-0.76383 0.0513,-0.76383 0.24444,-1.53125 0.24444,-1.53125 0.5479,-1.71675 0.5479,-1.71674 1.01573,-1.92154 1.01573,-1.92154 0.4375,-0.60327 0.4375,-0.60328 1.08637,-1.33657 1.08637,-1.33656 1.42925,-1.42758 1.42926,-1.42757 0.875,-0.772161 0.875,-0.772165 2.15693,-1.685514 2.15693,-1.685513 3.53057,-2.315334 3.53057,-2.315333 1.56935,-1.072855 1.56935,-1.072855 h 0.10478 0.10479 l 2.37274,-1.574918 2.37273,-1.574918 0.10938,-0.126047 0.10937,-0.126047 0.97688,-0.759972 0.97687,-0.759973 0.77979,-0.765625 0.77978,-0.765625 0.54763,-0.765625 0.54762,-0.765625 0.26603,-0.611855 0.26603,-0.611856 v -0.885626 -0.885626 l -0.4524,-0.635331 -0.45239,-0.635331 h -1.10424 -1.10423 l -1.01368,0.745547 -1.01369,0.745547 -0.80735,0.949766 -0.80735,0.949765 -1.70287,2.060061 -1.70286,2.06006 -1.29714,0.838377 -1.29713,0.838377 h -1.22991 -1.22991 l -0.45766,-0.320555 -0.45766,-0.320555 -0.35664,-0.751567 -0.35664,-0.751567 -9.7e-4,-0.513815 -9.8e-4,-0.513816 0.58671,-1.859375 0.58671,-1.859375 0.17989,-0.07292 0.17989,-0.07292 V 78.228646 77.74375 l 0.18259,-0.207813 0.1826,-0.207812 0.38127,-1.09375 0.38127,-1.09375 0.19074,-0.4375 0.19075,-0.4375 0.35329,-1.088386 0.35329,-1.088387 0.15898,-0.224113 0.15897,-0.224114 0.27883,-0.875 0.27884,-0.875 0.1781,-0.4375 0.17811,-0.4375 0.33897,-0.875 0.33898,-0.875 0.80045,-2.1875 0.80044,-2.1875 0.17696,-0.4375 0.17696,-0.4375 0.32525,-0.765625 0.32526,-0.765625 0.28858,-0.875 0.28858,-0.875 0.1741,-0.207813 0.17409,-0.207812 V 57.859375 57.4 l 0.18889,-0.207812 0.1889,-0.207813 0.22924,-0.65625 0.22924,-0.65625 0.57863,-1.53125 0.57864,-1.53125 0.55053,-1.53125 0.55053,-1.53125 0.27926,-0.65625 0.27926,-0.65625 0.27364,-0.765625 0.27364,-0.765625 0.17113,-0.4375 0.17112,-0.4375 0.57306,-1.421875 0.57305,-1.421875 -6.3e-4,-0.287297 -6.3e-4,-0.287297 0.67566,0.06855 0.67565,0.06855 0.6529,1.75 0.6529,1.75 0.18359,0.4375 0.18358,0.4375 1.34716,3.609375 1.34716,3.609375 0.17701,0.4375 0.17702,0.4375 0.38049,0.984375 0.3805,0.984375 0.17049,0.4375 0.17049,0.4375 0.26647,0.765625 0.26647,0.765625 0.26967,0.65625 0.26966,0.65625 0.27364,0.765625 0.27364,0.765625 0.1746,0.4375 0.1746,0.4375 0.27364,0.765625 0.27364,0.765625 0.27222,0.65625 0.27223,0.65625 0.80124,2.1875 0.80123,2.1875 0.20623,0.379844 0.20622,0.379845 v 0.318183 0.318183 l 0.21875,0.135195 0.21875,0.135195 v -2.63728 -2.63728 l -0.78913,-0.873475 -0.78913,-0.873475 0.29694,-0.09387 0.29694,-0.09387 2.625,-0.152248 2.625,-0.152247 0.65625,-0.0056 0.65625,-0.0056 0.875,0.175866 0.875,0.175867 0.83599,0.550658 0.83599,0.550658 0.42183,0.826843 0.42182,0.826842 v 1.216186 1.216187 l -0.53478,0.847144 -0.53478,0.847144 -0.61366,0.416987 -0.61366,0.416986 -0.61185,0.262773 -0.61186,0.262772 -0.59127,0.0024 -0.59127,0.0024 0.68957,0.543575 0.68956,0.543576 0.65203,1.149311 0.65202,1.149311 0.91919,1.039062 0.91919,1.039063 h 0.52829 0.52828 V 79.078125 79.625 h -1.4918 -1.4918 l -0.42226,-0.502058 -0.42227,-0.502058 -1.24756,-1.858998 -1.24756,-1.858998 -0.98178,-0.920194 -0.98177,-0.920194 H 150.73157 150.5 l -0.0317,0.492187 -0.0317,0.492188 -0.0316,0.875 -0.0316,0.875 0.20207,1.349358 0.20207,1.349358 0.39236,0.102606 0.39237,0.102606 -0.0295,0.954286 -0.0295,0.954286 0.35031,0.765625 0.35032,0.765625 0.80523,2.1875 0.80523,2.1875 0.17604,0.4375 0.17605,0.4375 0.38049,0.984375 0.3805,0.984375 0.17605,0.4375 0.17604,0.4375 0.80163,2.1875 0.80163,2.1875 0.17372,0.4375 0.17371,0.4375 0.57306,1.421875 0.57305,1.421875 -6.3e-4,0.276406 -6.3e-4,0.276405 0.19323,0.379845 0.19323,0.379844 0.23824,0.546875 0.23823,0.54688 0.46332,1.20312 0.46333,1.20313 0.33007,0.98437 0.33007,0.98438 0.28621,0.65625 0.2862,0.65625 0.8053,2.1875 0.80529,2.1875 0.178,0.4375 0.17799,0.4375 0.54668,1.42187 0.54669,1.42188 1.5792,4.04687 1.5792,4.04688 0.99713,2.07812 0.99713,2.07813 0.9736,1.53124 0.9736,1.53125 0.66538,0.76563 0.66539,0.76562 0.66114,0.49219 0.66115,0.49219 h 0.17625 0.17625 v -5.76705 -5.76704 l -0.56625,-0.56625 -0.56625,-0.56625 0.14166,-0.2292 0.14166,-0.22921 h 1.94293 1.94293 l 0.15017,0.24298 0.15017,0.24299 -0.55406,0.46795 -0.55407,0.46796 -0.14545,3.11718 -0.14545,3.11719 0.15642,3.0815 0.15642,3.0815 2.21052,-0.0764 2.21052,-0.0764 0.83849,-0.41363 0.83848,-0.41363 0.20122,-0.52925 0.20121,-0.52924 0.38218,0.0727 0.38217,0.0727 0.0667,1.16415 0.0667,1.16414 -0.25759,0.31037 -0.25758,0.31037 h -2.46206 -2.46205 L 178.5,134.42187 178.22768,134.75 h -14.86343 -14.86343 l 0.0699,-0.49219 0.0699,-0.49219 1.64063,-0.13532 1.64062,-0.13532 1.3125,-0.27095 1.3125,-0.27094 1.14372,-0.53707 1.14372,-0.53707 0.76494,-0.74286 0.76494,-0.74286 0.49148,-1.04559 0.49149,-1.04558 -0.0308,-2.45352 -0.0308,-2.45352 -0.22236,-0.72095 -0.22235,-0.72094 -0.37928,-1.42188 -0.37928,-1.42187 -0.18177,-0.20782 -0.18177,-0.20781 v -0.37933 -0.37933 l -0.57037,-1.38161 -0.57038,-1.3816 -0.17576,-0.4375 -0.17577,-0.4375 -0.79972,-2.1875 -0.79972,-2.1875 -0.55354,-1.42188 -0.55353,-1.42187 -0.17799,-0.4375 -0.178,-0.4375 -0.80163,-2.1875 -0.80163,-2.1875 -0.17604,-0.4375 -0.17605,-0.4375 -0.3805,-0.98438 -0.38049,-0.984375 -0.18155,-0.4375 -0.18155,-0.4375 -0.34247,-1.056537 -0.34248,-1.056536 -0.43417,-0.898614 -0.43416,-0.898613 v -0.290006 -0.290005 l -0.19629,-0.379845 -0.1963,-0.379844 -0.37303,-0.984375 -0.37304,-0.984375 -0.1963,-0.379844 L 147,90.130936 V 89.756093 89.38125 l -0.2222,0.222201 -0.2222,0.222201 0.24882,2.282486 0.24883,2.282487 -0.14209,4.8125 -0.14209,4.812505 -0.20296,1.75 -0.20295,1.75 -0.19341,1.3125 -0.1934,1.3125 -0.49411,1.96875 -0.49412,1.96875 -0.53487,1.64062 -0.53488,1.64063 -0.42794,0.9273 -0.42793,0.9273 v 0.21176 0.21176 l -1.01417,1.92344 -1.01417,1.92344 -0.98386,1.42187 -0.98386,1.42188 -0.72045,0.89242 -0.72046,0.89242 -1.42929,1.38004 -1.42929,1.38004 -1.4736,1.07431 -1.47359,1.07431 -1.87082,0.89232 -1.87082,0.89231 -0.43749,0.17498 -0.4375,0.17498 -1.09375,0.32557 -1.09375,0.32556 -1.09375,0.23417 -1.09375,0.23416 -2.26537,0.22151 -2.26537,0.22152 z m 6.42162,-4.6959 1.53125,-0.11185 1.64236,-0.40335 1.64237,-0.40336 1.23966,-0.54823 1.23966,-0.54824 1.27422,-0.8689 1.27422,-0.8689 1.0576,-0.9353 1.05759,-0.93529 1.14631,-1.44166 1.14631,-1.44166 0.76005,-1.20313 0.76006,-1.20312 0.67211,-1.42188 0.67211,-1.42187 0.35612,-0.82032 0.35612,-0.82031 0.30354,-0.71094 0.30354,-0.71093 0.48482,-1.64063 0.48482,-1.64062 0.18431,-0.54688 0.18432,-0.54687 0.34187,-1.85938 0.34188,-1.85937 0.20958,-1.09375 0.20958,-1.09375 0.17118,-2.51563 0.17118,-2.515625 -0.0172,-3.0625 -0.0172,-3.0625 -0.25241,-2.953125 -0.25241,-2.953125 -0.18496,-1.203125 -0.18497,-1.203125 -0.27368,-0.984375 -0.27369,-0.984375 -0.2268,-0.875 -0.2268,-0.875 -0.21903,-0.65625 -0.21902,-0.65625 -0.26967,-0.65625 -0.26966,-0.65625 -0.27364,-0.765625 -0.27364,-0.765625 -0.17049,-0.4375 -0.17049,-0.4375 -0.3805,-0.984375 -0.38049,-0.984375 -0.19257,-0.492188 -0.19256,-0.492187 -0.19667,-0.492188 -0.19668,-0.492187 -0.27364,-0.765625 -0.27364,-0.765625 -0.26966,-0.65625 -0.26967,-0.65625 -0.2684,-0.765625 -0.2684,-0.765625 -0.52287,-1.367188 -0.52287,-1.367187 -0.52359,-1.367188 -0.5236,-1.367187 -0.48406,-1.3125 -0.48406,-1.3125 -0.54915,-1.421875 -0.54914,-1.421875 -0.17566,-0.4375 -0.17566,-0.4375 -0.50973,-1.388793 -0.50973,-1.388793 -0.19673,-0.03308 -0.19674,-0.03308 -0.29587,0.875 -0.29587,0.875 -0.19244,0.4375 -0.19244,0.4375 -0.59063,1.640625 -0.59062,1.640625 -0.1747,0.4375 -0.17471,0.4375 -0.33433,0.875 -0.33433,0.875 -0.48076,1.3125 -0.48076,1.3125 -0.5236,1.367187 -0.52359,1.367188 -0.52287,1.367187 -0.52287,1.367188 -0.26483,0.765625 -0.26483,0.765625 -0.1741,0.4375 -0.1741,0.4375 -0.44962,1.110001 -0.44962,1.110001 -0.35192,1.077499 -0.35193,1.077499 -0.55908,1.421875 -0.55908,1.421875 -0.16911,0.4375 -0.16912,0.4375 -0.24283,0.900379 -0.24284,0.90038 v 0.52751 0.52751 l 0.34053,0.486173 0.34053,0.486173 h 0.87787 0.87787 l 0.91441,-0.637024 0.91442,-0.637025 0.99903,-1.058288 0.99903,-1.058288 1.18847,-1.421875 1.18846,-1.421875 0.84466,-0.826554 0.84466,-0.826555 0.97586,-0.671409 0.97586,-0.671409 1.24198,-0.02481 1.24198,-0.02481 0.58637,0.389539 0.58636,0.389539 0.37172,0.567315 0.37172,0.567315 -0.0137,1.852769 -0.0137,1.852769 -0.23346,0.233467 -0.23347,0.233466 v 0.294883 0.294883 l -0.79544,1.247305 -0.79544,1.247304 -1.33737,1.332215 -1.33738,1.332215 -2.1875,1.634828 -2.1875,1.634829 -3.06249,2.136049 -3.0625,2.136049 -1.09375,0.873327 -1.09375,0.873326 -1.20313,0.8907 -1.20312,0.890699 -2.17378,2.211007 -2.17377,2.21101 -1.38092,2.12644 L 112,106.95601 v 0.18418 0.18418 l -0.50669,1.08 -0.5067,1.08001 -0.25091,0.875 -0.2509,0.875 -0.33615,1.43585 -0.33615,1.43585 0.01,3.04852 0.01,3.04853 0.31523,0.875 0.31523,0.875 0.003,0.37632 0.003,0.37633 0.5772,1.2643 0.57719,1.2643 0.81919,1.20312 0.81919,1.20313 0.99701,0.92968 0.99702,0.92969 h 0.11894 0.11894 l 1.04235,0.64076 1.04235,0.64077 1.09375,0.3718 1.09375,0.37181 1.64062,0.28891 1.64063,0.28891 z m 29.35036,-60.249836 0.91286,0.0087 0.66027,-0.660277 0.66028,-0.660278 0.12243,-0.92566 0.12242,-0.92566 -0.16915,-0.745421 -0.16915,-0.745421 -0.76079,-0.613476 -0.76079,-0.613475 -1.75,-0.129859 -1.75,-0.129858 -0.25028,0.176255 -0.25029,0.176255 -0.0801,2.580869 -0.0801,2.580869 0.46303,-0.116214 0.46304,-0.116214 0.85173,0.425066 0.85172,0.425066 z m -111.454438,62.553946 -1.239677,-0.0173 -0.65625,-0.23267 -0.65625,-0.23267 -0.65625,-0.43405 -0.65625,-0.43404 -0.795376,-0.86564 -0.795376,-0.86564 -0.324359,-0.80194 -0.324358,-0.80194 -0.247453,-0.78115 -0.247453,-0.78116 0.0024,-1.40634 0.0024,-1.40634 0.308548,-1.01665 0.308547,-1.01665 0.35771,-0.69173 0.357709,-0.69173 0.788113,-0.87235 0.788114,-0.87235 0.894824,-0.39952 0.894824,-0.39953 0.852534,-0.27391 0.852535,-0.27391 1.22559,0.26761 1.225591,0.2676 1.038411,0.65738 1.03841,0.65738 0.611823,0.79793 0.611823,0.79793 0.287234,0.65625 0.287234,0.65625 0.30472,1.15911 0.30472,1.15911 v 0.85365 0.85365 l -0.323207,1.24088 -0.323206,1.24087 -0.539688,0.92091 -0.539689,0.92091 -0.904677,0.81732 -0.904678,0.81732 -0.984938,0.4222 -0.984938,0.42219 z m 0.510323,-1.00161 0.65625,-0.11487 0.818965,-0.52909 0.818964,-0.52908 0.547296,-0.86698 0.547296,-0.86697 0.325869,-0.9355 0.325868,-0.93551 -1.1e-4,-1.96874 -1.1e-4,-1.96875 -0.270144,-0.76616 -0.270144,-0.76616 -0.602406,-1.02423 -0.602407,-1.02424 -0.706491,-0.50307 -0.706492,-0.50306 -1.332416,-0.003 -1.332417,-0.003 -0.812259,0.61899 -0.812259,0.619 -0.496027,0.80288 -0.496026,0.80288 -0.261338,0.90037 -0.261337,0.90038 0.0033,2.05275 0.0033,2.05274 0.278161,0.76563 0.278161,0.76562 0.353853,0.65625 0.353852,0.65625 0.657502,0.65625 0.657502,0.65625 0.840003,0.25894 0.840004,0.25894 z m 42.614867,0.95984 -0.260134,0.0866 -1.01738,-1.49036 -1.017381,-1.49036 L 81.027174,127.879 78.75,124.39863 v -0.18369 -0.18369 h -0.169005 -0.169006 l -0.405402,-0.75279 -0.405402,-0.75278 -0.326192,-0.12517 -0.326192,-0.12518 0.08653,4.32327 0.08653,4.32327 0.543555,0.98195 0.543555,0.98194 0.434574,0.0784 0.434574,0.0784 0.198542,0.18824 0.198541,0.18825 -0.280014,0.33739 -0.280014,0.3374 H 77.20985 75.504526 l -0.346016,-0.13278 -0.346016,-0.13278 v -0.28998 -0.28998 l 0.413974,-0.13139 0.413975,-0.13139 0.253199,-0.61128 0.253199,-0.61127 -0.06561,-5.5275 -0.06561,-5.52751 -0.65625,-0.52883 -0.65625,-0.52884 0.328125,-0.21238 0.328125,-0.21239 1.106628,-0.003 1.106628,-0.003 0.342339,0.27344 0.342339,0.27344 1.535668,2.40625 1.535667,2.40625 1.672138,2.51562 1.672137,2.51562 0.241928,0.0834 0.241928,0.0834 -0.10986,-3.62189 -0.109861,-3.62188 -0.523214,-1.05529 -0.523215,-1.05528 -0.546875,-0.26619 -0.546875,-0.26619 v -0.28069 -0.28068 l 2.058515,-0.0634 2.058514,-0.0634 0.22864,0.22864 0.22864,0.22864 -0.704097,0.60035 -0.704097,0.60035 -0.05181,6.65372 -0.05181,6.65373 z m -60.78422,-0.20677 -1.976855,0.0623 -0.153458,-0.15346 -0.153459,-0.15346 V 133.505 133.20792 L 23.078125,133 23.625,132.79208 v -6.11217 -6.11217 l -0.580228,-0.42267 -0.580229,-0.42266 0.155639,-0.25183 0.155638,-0.25183 h 1.342925 1.342924 l 1.793385,-0.2593 1.793385,-0.25929 1.156995,0.37366 1.156996,0.37367 0.725265,0.55319 0.725265,0.55319 0.298541,0.59025 0.298541,0.59026 0.260199,1.1079 0.260199,1.10791 -0.458951,1.22665 -0.45895,1.22666 -0.841241,0.76001 -0.841241,0.76001 -1.282216,0.37424 -1.282216,0.37424 -1.055751,-0.24225 -1.055751,-0.24225 H 26.233312 25.8125 l 0.0034,2.13281 0.0033,2.13281 0.160713,0.23471 0.160713,0.23471 0.39898,0.14744 0.398979,0.14745 -0.07335,0.38347 -0.07335,0.38347 z m 3.667944,-6.59734 1.02984,-0.0709 0.75795,-0.57811 0.757949,-0.57812 0.345022,-0.69161 0.345023,-0.69162 v -1.18038 -1.18038 l -0.327895,-0.63408 -0.327895,-0.63407 -0.775077,-0.59118 -0.775077,-0.59118 -1.072238,-0.10303 -1.072238,-0.10303 -0.777915,0.14594 -0.777915,0.14593 v 3.48592 3.48592 l 0.601563,0.13268 0.601562,0.13268 0.21875,0.0847 0.21875,0.0847 z m 27.46579,6.6444 H 54.3375 l -0.2625,-0.2625 -0.2625,-0.2625 v -0.175 -0.175 h 0.315721 0.315721 l 0.340529,-0.48617 0.340529,-0.48618 v -6.07632 -6.07633 h -0.404857 -0.404858 l -0.74358,0.23678 -0.74358,0.23679 -0.492187,0.23768 -0.492188,0.23768 v 0.38762 0.38763 l -0.228332,0.14112 -0.228333,0.14111 L 51.068543,121.8358 50.75,121.57143 v -0.9308 -0.93081 l 0.300884,-0.24971 0.300884,-0.24971 5.003803,0.0589 5.003804,0.0589 0.06777,1.06595 0.06777,1.06596 -0.109078,0.28425 -0.109077,0.28425 -0.450882,-0.11791 -0.450881,-0.11791 v -0.2687 -0.26871 l -0.382812,-0.32877 -0.382813,-0.32877 -1.021781,-0.2756 -1.021781,-0.2756 -0.236032,0.14587 -0.236031,0.14588 v 5.64725 5.64724 l 0.137286,0.68643 0.137287,0.68644 0.518963,0.13025 0.518964,0.13025 v 0.18734 0.18734 l -0.423119,0.22644 -0.423119,0.22645 z m 12.219772,-0.0173 -4.840403,-0.0173 -0.273437,-0.11033 -0.273438,-0.11034 v -0.22372 -0.22373 l 0.546875,-0.43017 0.546875,-0.43017 v -5.82372 -5.82372 l -0.570771,-0.59575 -0.570771,-0.59576 0.146181,-0.23652 0.146181,-0.23653 4.963652,0.003 4.963653,0.003 0.286792,0.18188 0.286792,0.18187 -0.06804,1.07062 -0.06804,1.07062 -0.382812,0.0727 -0.382813,0.0727 v -0.31901 -0.319 l -0.492187,-0.32129 -0.492188,-0.32129 -0.765625,-0.16544 -0.765625,-0.16544 -2.023437,-0.10032 -2.023438,-0.10031 v 2.4486 2.44861 l 0.614966,-0.123 0.614965,-0.12299 0.752222,0.19189 0.752222,0.19188 0.935983,0.2601 0.935983,0.26009 0.393741,-0.35633 0.393742,-0.35633 h 0.365588 0.365588 v 0.41437 0.41436 l -0.63464,0.67939 -0.634639,0.67938 H 69.919997 68.921774 L 67.942227,126.54688 66.962681,126 H 66.51259 66.0625 v 3.51453 3.51453 l 2.132813,-0.0939 2.132812,-0.094 0.65625,-0.16722 0.65625,-0.16722 0.492188,-0.44774 0.492187,-0.44774 v -0.30604 -0.30603 l 0.382813,0.0728 0.382812,0.0728 0.06673,1.16415 0.06674,1.16414 -0.257582,0.31037 -0.257583,0.31037 z m 25.690247,0.0173 h -1.681406 l -0.422436,-0.30889 -0.422437,-0.3089 0.598705,-0.27278 0.598706,-0.27279 0.218202,-0.78551 0.218201,-0.78551 0.0012,-5.5303 0.0012,-5.5303 -0.350022,-0.13432 -0.350021,-0.13431 -1.229721,0.41515 -1.229721,0.41515 -0.279256,0.54634 -0.279257,0.54635 -0.271743,-0.0722 -0.271744,-0.0722 -0.162783,-0.2559 -0.162783,-0.25589 -0.0033,-0.66913 -0.0033,-0.66913 0.273608,-0.37418 0.273608,-0.37418 5.031079,0.0589 5.03108,0.0589 0.133634,0.98437 0.133634,0.98438 -0.10235,0.27343 -0.102351,0.27344 -0.359408,-10e-4 -0.359409,-0.001 -0.342546,-0.60018 -0.342547,-0.60017 -1.273854,-0.29175 -1.273854,-0.29175 -0.184937,0.29175 -0.184938,0.29175 0.0062,5.14062 0.0062,5.14062 0.184721,0.95633 0.184721,0.95632 0.297939,0.18856 0.29794,0.18856 0.21875,0.0774 0.21875,0.0774 -0.300222,0.3637 -0.300223,0.3637 z m 101.996445,-5.51093 -0.47019,0.0672 -0.13968,-0.226 -0.13967,-0.22601 0.26955,-1.37244 0.26956,-1.37244 0.2238,-0.29683 0.22381,-0.29683 0.99286,0.12339 0.99286,0.12339 1.29168,0.2876 1.29168,0.2876 0.23587,0.37392 0.23586,0.37392 -0.37471,0.37471 -0.37471,0.37471 -1.04346,-0.25405 -1.04346,-0.25405 -0.79313,-0.1358 -0.79313,-0.1358 -0.1926,1.05831 -0.19261,1.0583 z m 5.64582,-7.61407 h -0.39687 l -0.14371,-0.14371 -0.14371,-0.14371 0.13737,-1.16879 0.13737,-1.16879 h -0.46762 -0.46762 v 0.75 0.75 l -0.33446,0.33446 -0.33445,0.33445 -0.33824,-0.12979 -0.33823,-0.1298 0.14621,-1.06307 0.14621,-1.06308 -0.35795,-0.13736 -0.35796,-0.13736 -0.11501,0.11502 -0.11502,0.11501 -0.14899,1.03674 -0.14899,1.03674 -0.37679,0.23754 -0.37679,0.23754 -0.24699,-0.24699 -0.24699,-0.24699 0.29566,-1.82622 0.29565,-1.82621 0.65625,0.0308 0.65625,0.0308 1.64063,0.16298 1.64062,0.16297 0.2806,0.22178 0.2806,0.22178 -0.1293,1.33446 -0.1293,1.33447 -0.10078,0.49218 -0.10078,0.49219 z m 0.0771,-9.05645 -1.09375,0.0217 -1.42187,-0.13105 -1.42188,-0.13105 v -0.54688 -0.54687 l 0.98438,-0.0726 0.98437,-0.0726 1.59856,0.14713 1.59855,0.14712 -0.0673,0.58172 -0.0673,0.58172 z m 0.71864,-5.60315 -0.15637,0.003 -0.22644,-0.42312 -0.22645,-0.42312 v -0.33399 -0.33399 l -1.89095,-0.0632 -1.89095,-0.0632 -0.23694,-0.3768 -0.23695,-0.37679 0.23666,-0.23666 0.23667,-0.23667 1.83654,-0.15217 1.83654,-0.15216 0.0672,-0.69232 0.0672,-0.69232 0.35223,-0.13517 0.35224,-0.13516 0.23686,0.23661 0.23685,0.2366 0.0775,1.98575 0.0775,1.98575 -0.29624,0.18772 -0.29624,0.18771 z m -3.99989,-8.646494 -0.4375,0.07317 -0.27343,-0.104894 -0.27344,-0.104893 V 97.013021 96.5 l 0.28394,-0.289063 0.28394,-0.289062 0.8645,-0.96472 0.86449,-0.964721 -1.25761,0.128583 -1.25762,0.128582 -0.13016,-0.518617 -0.13017,-0.518616 0.12292,-0.198893 0.12293,-0.198892 1.48361,-0.173828 1.4836,-0.173828 0.98438,-0.02253 0.98437,-0.02253 0.0736,0.520189 0.0736,0.520189 -1.04476,1.060708 -1.04476,1.060707 0.16693,0.16693 0.16693,0.166931 1.02301,0.0022 1.023,0.0022 0.068,0.477387 0.068,0.477386 -0.41891,0.224194 -0.41891,0.224195 -1.50843,0.132222 -1.50843,0.132223 z m -1.76698,-9.11332 -0.45448,0.06496 -0.26776,-0.893693 -0.26776,-0.893694 -0.12456,-1.051759 -0.12457,-1.05176 0.40931,-0.168474 0.4093,-0.168474 1.53125,-0.327866 1.53125,-0.327867 0.51916,-0.02942 0.51916,-0.02942 0.16548,0.328125 0.16547,0.328125 0.32406,1.339283 0.32405,1.339283 -0.19925,0.35603 -0.19924,0.356029 h -0.30608 -0.30607 L 199.79935,86.515625 199.4201,85.3125 h -0.42126 -0.42127 l 0.16764,0.601562 0.16764,0.601563 0.0201,0.546875 0.0201,0.546875 -0.46065,0.06577 -0.46066,0.06577 L 197.7531,86.745457 197.47439,85.75 h -0.40907 -0.40907 v 0.503125 0.503125 l 0.23585,0.235851 0.23585,0.235852 -0.0718,0.628211 -0.0718,0.628211 z m -30.64736,-8.971051 -2.00311,0.06266 -0.16249,-0.262928 -0.1625,-0.262928 0.63685,-0.507607 0.63684,-0.507607 V 72.0265 65.953125 l -0.69483,-0.06735 -0.69484,-0.06735 -0.87937,0.44862 -0.87937,0.44862 -0.2034,0.363459 -0.2034,0.363459 -0.36672,-0.140724 -0.36672,-0.140724 0.0662,-1.150883 0.0662,-1.150884 5.19532,-0.05865 5.19531,-0.05865 V 66.058541 67.375 h -0.35773 -0.35773 l -0.46258,-0.495617 -0.46259,-0.495617 -0.91342,-0.299653 -0.91342,-0.299653 -0.34439,0.132154 -0.34439,0.132155 0.003,5.967803 0.003,5.967803 0.16071,0.234706 0.16071,0.234706 0.39898,0.147445 0.39898,0.147445 -0.0734,0.383474 -0.0734,0.383474 z m 32.64558,-0.172035 h -0.32937 l -0.33937,-0.65625 -0.33936,-0.65625 -0.15844,0.0057 -0.15845,0.0057 -1.63284,0.541146 -1.63284,0.541146 -0.30371,-0.3037 -0.3037,-0.303701 0.13363,-0.421023 0.13363,-0.421023 1.36542,-0.383124 1.36541,-0.383124 0.32813,-0.179693 0.32812,-0.179694 -0.0642,-0.790551 -0.0642,-0.790552 h 0.53692 0.53691 l 0.58407,1.87406 0.58408,1.874061 -0.12028,0.313439 -0.12028,0.31344 z m -5.685,-7.4375 h -0.98478 l -0.74463,-0.744634 -0.74463,-0.744634 -0.14013,-0.746933 -0.14013,-0.746934 0.13613,-0.680611 0.13612,-0.68061 0.46791,-0.41742 0.4679,-0.41742 0.72233,-0.285407 0.72232,-0.285407 0.85607,0.282527 0.85607,0.282528 0.55442,0.837787 0.55442,0.837788 v 0.781178 0.781178 l -0.31694,0.612903 -0.31695,0.612902 -0.55036,0.36061 -0.55036,0.360609 z m -0.12436,-1.330292 0.10937,0.01182 0.48201,-0.129237 0.482,-0.129237 0.34367,-0.524516 0.34368,-0.524516 -0.33109,-0.640258 -0.33109,-0.640257 -0.45569,-0.144629 -0.45569,-0.14463 -0.53852,0.135162 -0.53853,0.135162 -0.23907,0.524709 -0.23908,0.524709 0.13239,0.527456 0.13238,0.527456 0.49694,0.239495 0.49694,0.239495 z m -3.04016,-7.880479 -0.13172,-0.02327 -0.54738,-0.218654 -0.54739,-0.218655 -0.54636,-0.750673 -0.54637,-0.750673 -0.72096,0.105472 -0.72096,0.105473 -0.21484,-0.565087 -0.21485,-0.565087 0.0608,-0.04569 0.0608,-0.04569 1.90055,-1.017723 1.90054,-1.017723 h 0.44461 0.44461 l 0.56462,1.2344 0.56463,1.234401 -0.066,0.782 -0.066,0.782 -0.74328,0.499225 -0.74329,0.499224 z m -0.16331,-1.570364 0.21909,-0.07303 0.19673,-0.315105 0.19673,-0.315105 -0.23305,-0.608597 -0.23305,-0.608597 -0.66614,0.344476 -0.66614,0.344475 0.1498,0.264122 0.1498,0.264121 0.33357,0.388135 0.33357,0.388135 z M 179.8522,51.1875 h -0.20488 l -0.27066,-0.326122 -0.27065,-0.326121 0.14862,-0.712941 0.14863,-0.712941 0.12089,-0.975213 0.1209,-0.975213 -0.77668,0.5924 -0.77668,0.592401 h -0.31593 -0.31594 l -0.24931,-0.300399 -0.24931,-0.300399 0.12682,-0.301163 0.12681,-0.301164 1.86128,-1.400231 1.86128,-1.40023 0.45493,0.454936 0.45494,0.454935 -0.234,0.61717 -0.234,0.61717 -0.12971,0.929687 -0.12972,0.929688 h 0.11665 0.11665 l 0.88103,-0.583035 0.88102,-0.583035 0.34732,0.347323 0.34733,0.347323 -0.12426,0.323817 -0.12426,0.323816 -1.75212,1.333771 -1.75211,1.33377 z m -5.54126,-8.094568 -0.95157,-8.17e-4 -0.65625,-0.401232 -0.65625,-0.401232 -0.32447,-0.392803 -0.32448,-0.392804 V 40.266412 39.02878 l 0.43385,-0.453475 0.43385,-0.453476 0.47781,-0.248414 0.47781,-0.248415 h 0.86364 0.86365 l 0.90073,0.900735 0.90074,0.900736 v 1.089889 1.08989 l -0.74375,0.74375 -0.74375,0.74375 z m -0.27382,-1.311682 h 0.71932 l 0.34053,-0.486173 0.34053,-0.486173 v -0.527231 -0.527231 l -0.47097,-0.408471 -0.47097,-0.408471 h -0.47216 -0.47215 l -0.47875,0.446021 -0.47875,0.446022 v 0.575816 0.575817 l 0.36203,0.400037 0.36203,0.400037 z M 166.12969,36.31752 165.9,36.3125 165.6375,36.05 165.375,35.7875 v -0.191148 -0.191147 l 1.21567,-1.432963 1.21567,-1.432963 -0.47772,-0.508509 -0.47772,-0.50851 0.13018,-0.339255 0.13019,-0.339255 0.38968,0.0081 0.38967,0.0081 1.36747,1.249726 1.36746,1.249725 -2.8e-4,0.369903 -2.7e-4,0.369902 -0.2183,0.134918 -0.2183,0.134917 -0.67464,-0.395445 -0.67465,-0.395445 -1.23987,1.372208 -1.23987,1.372208 z m -9.83505,-7.710122 -0.43527,0.06052 -0.8087,-0.55271 -0.80871,-0.55271 h -0.19645 -0.19645 l -0.36203,-0.400037 -0.36203,-0.400037 v -0.258241 -0.258242 l 1.22323,-1.857346 1.22322,-1.857347 h 0.29718 0.29718 l 1.31345,0.820312 1.31346,0.820313 0.01,0.492187 0.01,0.492188 h -0.38672 -0.38672 l -0.79509,-0.54028 -0.7951,-0.54028 -0.27123,0.326817 -0.27123,0.326816 0.0859,0.06555 0.0859,0.06555 0.71094,0.490931 0.71094,0.490931 v 0.320095 0.320095 l -0.32981,0.126561 -0.32982,0.126562 -0.53749,-0.352177 -0.53749,-0.352177 h -0.44519 -0.4452 v 0.318904 0.318904 l 0.99519,0.58322 0.99519,0.583221 -0.0677,0.355688 -0.0677,0.355688 z m -7.87277,-4.91004 -0.65625,0.107115 -0.49281,-0.144424 -0.49281,-0.144424 -0.65562,-0.620105 -0.65563,-0.620105 v -0.752543 -0.752544 l 0.76838,-1.525789 0.76837,-1.525789 h 0.19811 0.19811 l 0.34601,0.132779 0.34602,0.132779 v 0.364978 0.364978 l -0.64938,1.306931 -0.64939,1.30693 -0.007,0.268395 -0.007,0.268394 0.51605,0.338131 0.51605,0.33813 0.33632,-0.129057 0.33632,-0.129056 0.67628,-1.268841 0.67629,-1.26884 0.30299,-0.251465 0.303,-0.251464 0.35585,0.136553 0.35585,0.136553 v 0.418122 0.418122 l -0.54494,1.035037 -0.54494,1.035036 -0.49412,0.584184 -0.49413,0.584184 z m -8.41093,-2.275846 -0.33907,-0.01599 -0.59585,-0.366825 -0.59586,-0.366824 -0.71664,-0.959337 -0.71665,-0.959336 -0.38166,-0.571914 -0.38166,-0.571913 -0.001,-0.660158 -10e-4,-0.660158 0.51774,-0.761925 0.51774,-0.761926 0.78568,-0.284105 0.78568,-0.284105 0.87254,0.234951 0.87255,0.234951 0.66778,0.810141 0.66779,0.810141 v 0.726647 0.726647 l -0.3305,0.639114 -0.3305,0.639113 -0.76209,0.517853 -0.76208,0.517853 0.14467,0.14467 0.14467,0.144671 h 0.40104 0.40104 v 0.284375 0.284375 l -0.2625,0.2625 -0.2625,0.2625 z M 139.08895,18.375 h 0.82355 l 0.2625,-0.2625 0.2625,-0.2625 v -0.818846 -0.818846 l -0.48617,-0.340529 -0.48618,-0.340529 H 139.11757 138.77 l -0.47875,0.446021 -0.47875,0.446022 v 0.552734 0.552735 l 0.22645,0.423119 0.22644,0.423119 z m -9.32581,-1.763866 -0.81002,-0.01387 -0.4375,-0.180962 -0.4375,-0.180962 -0.50085,-0.539429 -0.50085,-0.539429 -0.12214,-0.752715 -0.12215,-0.752714 0.3364,-0.805114 0.33639,-0.805113 0.7241,-0.441472 0.7241,-0.441473 0.48777,-8.17e-4 0.48776,-8.18e-4 0.82474,0.33709 0.82473,0.33709 0.42235,0.576782 0.42235,0.576782 0.0152,1.00019 0.0152,1.000191 -0.4375,0.586606 -0.4375,0.586605 -0.50248,0.233707 -0.50248,0.233707 z m -0.0428,-1.298634 h 0.82305 l 0.35329,-0.539179 0.35328,-0.539178 v -0.345765 -0.345764 l -0.53693,-0.536932 -0.53693,-0.536932 h -0.42321 -0.42321 l -0.49819,0.403412 -0.4982,0.403411 v 0.678683 0.678682 l 0.282,0.339781 0.28199,0.339781 z m -8.09538,-0.506903 -0.98437,0.03997 -0.76563,-0.221159 -0.76562,-0.221159 -0.16872,-0.162523 -0.16871,-0.162524 0.24268,-1.515664 0.24268,-1.515665 0.14478,-0.875 0.14479,-0.875 0.45664,-0.065244 0.45664,-0.065244 0.23867,0.2875854 0.23868,0.2875854 -0.21732,1.0189432 -0.21732,1.018942 0.0689,0.83684 0.0689,0.836841 0.98437,0.237241 0.98438,0.237241 v 0.419009 0.419009 z M 92.174269,14.21875 H 91.9625 L 91.7,13.95625 91.4375,13.69375 V 12.368868 11.043987 L 91.230425,10.321959 91.02335,9.5999317 91.141259,9.292668 91.259167,8.9854043 91.697844,8.8461737 92.13652,8.7069431 l 1.236428,-0.021341 1.236427,-0.021341 0.707235,0.3746972 0.707234,0.3746972 0.355856,0.6881485 0.355855,0.688148 -0.115115,0.858247 -0.115115,0.858247 -0.692236,0.618028 -0.692237,0.618029 -1.367407,0.238123 -1.367407,0.238124 z M 93.69145,12.6875 h 0.664726 l 0.400037,-0.362029 0.400037,-0.362028 V 11.374567 10.785692 L 94.747779,10.314721 94.339308,9.84375 h -0.778614 -0.778615 l -0.07842,0.382813 -0.07842,0.382812 0.200742,1.039063 0.200742,1.039062 z m 18.8116,1.055533 -0.61242,-0.03822 -0.91266,-0.0829 -0.91265,-0.0829 -0.18132,-0.261693 -0.18132,-0.261692 0.0694,-2.242267 0.0694,-2.2422672 0.44378,-0.2375027 0.44378,-0.2375027 1.45575,0.2533864 1.45576,0.2533863 0.38281,0.3462245 0.38281,0.3462245 v 0.7134923 0.7134926 l -0.27344,0.09203 -0.27343,0.09203 0.25209,0.309011 0.25209,0.309011 0.0465,0.4375 0.0465,0.4375 -0.0252,0.377195 -0.0252,0.377195 -0.64539,0.333742 -0.64538,0.333743 z M 112.05619,12.6875 h 0.19132 l 0.42312,-0.226446 0.42312,-0.226447 v -0.189654 -0.189655 l -0.69945,-0.243828 -0.69944,-0.243828 -0.33962,0.345174 -0.33961,0.345173 0.42462,0.314756 0.42462,0.314755 z m 0.4189,-2.377344 0.43236,-0.159941 0.0235,-0.20792 0.0235,-0.20792 -0.58771,-0.2066864 -0.58771,-0.2066864 -0.27231,0.2761003 -0.27231,0.2761003 0.40417,0.2984472 0.40417,0.298447 z m -9.25536,3.033594 h -1.95221 l -0.1106,-0.288226 -0.11061,-0.288226 0.0628,-2.282086 0.0628,-2.282087 h 1.96875 1.96875 v 0.4375 0.4375 l -1.20123,0.109375 -1.20123,0.109375 -0.0726,0.3828125 -0.0726,0.3828125 h 0.97363 0.97363 l 0.23302,0.280774 0.23302,0.280774 -0.16668,0.269702 -0.16669,0.269703 -0.93861,0.09338 -0.93861,0.09338 -0.11234,0.112337 -0.11234,0.112337 0.12954,0.33756 0.12953,0.337559 h 1.19708 1.19708 l 0.12299,0.19901 0.123,0.199009 -0.13349,0.347866 -0.13349,0.347865 z M 103.11951,7.875 h -0.28119 L 102.69461,7.6424658 102.55089,7.4099317 102.93435,6.9862158 103.31781,6.5625 h 0.47651 0.47651 l 0.1519,0.1518921 0.15189,0.1518921 -0.58696,0.5043579 L 103.4007,7.875 Z" /></g></svg>
