<svg xmlns="http://www.w3.org/2000/svg" width="32" height="32" viewBox="0 0 8.47 8.47"><path fill="#66442f" d="M2.81.7 1.75 3.53a.33.33 0 0 0-.03.13c0 .04.01.08.03.11l.07.1c.06.03.13.04.2.03a.4.4 0 0 0 .16-.07.5.5 0 0 0 .13-.12l.18-.27c.12-.15.23-.28.37-.28.08 0 .16.05.16.18 0 .68-2.63 1.3-2.63 2.91 0 .64.37 1.2 1.04 1.27h.02a2.25 2.25 0 0 0 .98-.15c.35-.13.65-.36.86-.66.22-.32.35-.7.42-1.07.08-.4.1-.82.07-1.23l.65 1.73c.25.66.29 1.2-.64 1.2v.06h2.42v-.06c-.4 0-.61-.36-.9-1.09L3.21.7h-.27Zm-.15.76.8 2.1a4.3 4.3 0 0 1 .03 2.06l-.23.63a1.59 1.59 0 0 1-1.1.86.98.98 0 0 1-.54-.07.95.95 0 0 1-.46-.47l-.09-.3a1.2 1.2 0 0 1-.01-.26v-.03c.14-.48.44-.91.84-1.21.35-.27.77-.44 1.09-.74a1 1 0 0 0 .23-.32c.04-.1.04-.21.02-.31a.43.43 0 0 0-.19-.26.39.39 0 0 0-.08-.03.31.31 0 0 0-.1-.02l-.06.01c-.32.08-.55.68-.83.68-.1 0-.16-.08-.07-.3Z"/><path fill="#f1b37f" d="m3.83.7 2.02 5.35.44-.5L4.45.7Zm1.25 0 1.65 4.36.43-.5L5.7.7Zm1.24 0L7.6 4.07l.43-.5L6.94.7Z"/></svg>
